# xmcd
#
# Track frame offsets:
#	150
#	18057
#	30450
#	45082
#	61747
#	70540
#	80032
#	93245
#	103837
#	116750
#	128517
#
# Disc length: 2022 seconds
#
# Revision: 0
# Processed by: cddbd v1.5.1PL2 Copyright (c) Steve Scherf et al.
# Submitted via: dBpowerAMP V4.0
#
DISCID=7807e40b
DTITLE=Phill Edwards - Tribute
DYEAR=1900
DGENRE=Blues
TTITLE0=Got my mojo working
TTITLE1=The power of my love
TTITLE2=Find out what's happening
TTITLE3=Never been to spain
TTITLE4=Early morning train
TTITLE5=I'll be back
TTITLE6=Let yourself go
TTITLE7=Such an easy question
TTITLE8=If you love me let me know
TTITLE9=If you talk in your sleep
TTITLE10=Lawdy miss clawdy
EXTD=
EXTT0=
EXTT1=
EXTT2=
EXTT3=
EXTT4=
EXTT5=
EXTT6=
EXTT7=
EXTT8=
EXTT9=
EXTT10=
PLAYORDER=
